<svg width="33" height="33" viewBox="0 0 33 33" fill="none" xmlns="http://www.w3.org/2000/svg">
<g clip-path="url(#clip0)">
<path d="M7.33278 17.7877L22.0182 32.4728C22.3579 32.8127 22.8113 33 23.2947 33C23.7782 33 24.2316 32.8127 24.5713 32.4728L25.6527 31.3916C26.3565 30.6871 26.3565 29.542 25.6527 28.8385L13.321 16.5068L25.6664 4.16146C26.0061 3.82153 26.1936 3.36839 26.1936 2.8852C26.1936 2.40147 26.0061 1.94833 25.6664 1.60813L24.5849 0.527191C24.245 0.187267 23.7919 -2.09967e-07 23.3084 -2.52232e-07C22.825 -2.94497e-07 22.3715 0.187267 22.0319 0.527191L7.33278 15.2258C6.99232 15.5667 6.80532 16.022 6.8064 16.506C6.80532 16.9919 6.99232 17.4469 7.33278 17.7877Z" fill="#262626"/>
</g>
<defs>
<clipPath id="clip0">
<rect width="33" height="33" fill="white" transform="translate(33 33) rotate(-180)"/>
</clipPath>
</defs>
</svg>
