<svg width="46" height="46" viewBox="0 0 46 46" fill="none" xmlns="http://www.w3.org/2000/svg">
<path d="M41.794 19.2461H40.2502V19.1666H23.0002V26.8333H33.8322C32.2519 31.2962 28.0055 34.4999 23.0002 34.4999C16.6493 34.4999 11.5002 29.3508 11.5002 22.9999C11.5002 16.649 16.6493 11.4999 23.0002 11.4999C25.9317 11.4999 28.5987 12.6058 30.6295 14.4123L36.0507 8.991C32.6276 5.80071 28.0487 3.83325 23.0002 3.83325C12.4154 3.83325 3.8335 12.4151 3.8335 22.9999C3.8335 33.5847 12.4154 42.1666 23.0002 42.1666C33.585 42.1666 42.1668 33.5847 42.1668 22.9999C42.1668 21.7148 42.0346 20.4603 41.794 19.2461Z" fill="#FFC107"/>
<path d="M6.04346 14.0788L12.3407 18.697C14.0446 14.4784 18.1712 11.4999 23.0002 11.4999C25.9317 11.4999 28.5988 12.6058 30.6295 14.4123L36.0508 8.991C32.6276 5.80071 28.0487 3.83325 23.0002 3.83325C15.6383 3.83325 9.25387 7.98954 6.04346 14.0788Z" fill="#FF3D00"/>
<path d="M23.0001 42.1666C27.9509 42.1666 32.4493 40.272 35.8504 37.1909L29.9183 32.1712C27.9294 33.6838 25.4989 34.5019 23.0001 34.4999C18.0149 34.4999 13.7819 31.3211 12.1873 26.885L5.93701 31.7006C9.10909 37.9078 15.551 42.1666 23.0001 42.1666Z" fill="#4CAF50"/>
<path d="M41.7939 19.2463H40.25V19.1667H23V26.8334H33.832C33.0761 28.9575 31.7145 30.8135 29.9153 32.1723L29.9182 32.1704L35.8503 37.1901C35.4305 37.5715 42.1667 32.5834 42.1667 23.0001C42.1667 21.715 42.0344 20.4605 41.7939 19.2463Z" fill="#1976D2"/>
</svg>
