<svg width="971" height="680" viewBox="0 0 971 680" fill="none" xmlns="http://www.w3.org/2000/svg">
<g clip-path="url(#clip0)">
<path d="M960.018 400.429C960.018 495.5 903.513 528.695 833.81 528.695C764.108 528.695 707.603 495.5 707.603 400.429C707.603 305.358 833.81 184.413 833.81 184.413C833.81 184.413 960.018 305.358 960.018 400.429Z" fill="#F2F2F2"/>
<path d="M829.213 514.152L830.505 434.586L884.298 336.152L830.708 422.104L831.289 386.328L868.363 315.112L831.443 376.861L832.487 312.516L872.188 255.82L832.652 302.398L833.306 184.413L829.202 340.604L829.539 334.16L789.176 272.364L828.892 346.53L825.13 418.392L825.019 416.484L778.488 351.453L824.878 423.223L824.407 432.209L824.323 432.345L824.362 433.083L814.82 615.403H827.568L829.098 521.231L875.374 449.637L829.213 514.152Z" fill="#3F3D56"/>
<path d="M697.506 313.899C697.506 436.857 624.427 479.79 534.278 479.79C444.13 479.79 371.05 436.857 371.05 313.899C371.05 190.94 534.278 34.5181 534.278 34.5181C534.278 34.5181 697.506 190.94 697.506 313.899Z" fill="#F2F2F2"/>
<path d="M528.332 460.981L530.003 358.076L599.576 230.767L530.266 341.933L531.017 295.663L578.966 203.556L531.216 283.418V283.418L532.567 200.199L583.912 126.871L532.78 187.112L533.625 34.5183L528.317 236.526L528.754 228.192L476.551 148.27L527.917 244.19L523.052 337.131L522.908 334.664L462.728 250.557L522.726 343.379L522.117 355.003L522.008 355.178L522.058 356.131L509.717 591.932H526.205L528.184 470.136L588.034 377.542L528.332 460.981Z" fill="#3F3D56"/>
<path d="M949.923 632.867C949.923 642.121 923.036 650.763 876.581 658.04C792.404 671.24 643.99 680 474.957 680C212.65 680 0 658.9 0 632.867C0 629.269 4.08167 625.745 11.8149 622.376C20.5365 618.559 33.9164 614.925 51.323 611.529C87.207 604.526 140.223 598.54 204.889 594.091C279.952 588.937 370.728 585.871 468.652 585.752C470.747 585.743 472.849 585.74 474.957 585.743C486.754 585.743 498.447 585.785 510.036 585.871C515.481 585.907 520.902 585.956 526.298 586.017C583.973 586.631 638.554 588.269 688.156 590.741C690.371 590.85 692.576 590.969 694.773 591.079C695.523 591.116 696.274 591.162 697.024 591.198C697.226 591.207 697.427 591.217 697.628 591.235C707.375 591.748 716.908 592.294 726.227 592.874C729.284 593.057 732.313 593.249 735.315 593.45C764.482 595.345 791.406 597.551 815.622 600.032C819.758 600.453 823.815 600.883 827.793 601.323C858.434 604.682 884.232 608.499 904.11 612.646C933.487 618.77 949.923 625.626 949.923 632.867Z" fill="#3F3D56"/>
<path opacity="0.1" d="M689.093 653.906C746.249 653.906 792.583 643.168 792.583 629.922C792.583 616.675 746.249 605.937 689.093 605.937C631.937 605.937 585.603 616.675 585.603 629.922C585.603 643.168 631.937 653.906 689.093 653.906Z" fill="black"/>
<path opacity="0.1" d="M949.924 632.867C949.924 642.121 923.036 650.763 876.582 658.04C841.457 654.204 817.141 645.92 817.141 636.327C817.141 624.381 854.81 614.477 904.11 612.646C933.487 618.77 949.924 625.626 949.924 632.867Z" fill="black"/>
<path opacity="0.1" d="M514.926 621.927C514.926 637.731 402.29 650.54 263.353 650.54C125.719 650.54 13.8996 637.976 11.813 622.373C38.5269 610.708 108.858 600.694 204.885 594.087C223.648 593.582 243.227 593.313 263.353 593.313C402.29 593.313 514.926 606.122 514.926 621.927Z" fill="black"/>
<path d="M468.65 0H51.3245V625.293H468.65V0Z" fill="#3F3D56"/>
<path d="M468.65 217.127H76.5659V409.007H468.65V217.127Z" fill="#2F2E41"/>
<path d="M622.623 221.335H234.746V403.958H622.623V221.335Z" fill="#3F3D56"/>
<path d="M345.177 248.266H258.515V279.404H345.177V248.266Z" fill="#88AEED"/>
<path d="M598.854 302.968H279.97V311.384H598.854V302.968Z" fill="#88AEED"/>
<path d="M598.854 324.849H279.97V333.265H598.854V324.849Z" fill="#88AEED"/>
<path d="M598.854 346.73H279.97V355.146H598.854V346.73Z" fill="#88AEED"/>
<path d="M598.854 368.611H279.97V377.027H598.854V368.611Z" fill="#88AEED"/>
<path d="M165.753 70.6926H79.0901V101.831H165.753V70.6926Z" fill="#F2F2F2"/>
<path d="M419.429 125.395H100.545V133.811H419.429V125.395Z" fill="#F2F2F2"/>
<path d="M419.429 147.276H100.545V155.692H419.429V147.276Z" fill="#F2F2F2"/>
<path d="M419.429 169.157H100.545V177.573H419.429V169.157Z" fill="#F2F2F2"/>
<path d="M419.429 191.038H100.545V199.454H419.429V191.038Z" fill="#F2F2F2"/>
<path d="M169.118 428.364H82.4556V459.502H169.118V428.364Z" fill="#F2F2F2"/>
<path d="M422.795 483.066H103.911V491.482H422.795V483.066Z" fill="#F2F2F2"/>
<path d="M422.795 504.947H103.911V513.363H422.795V504.947Z" fill="#F2F2F2"/>
<path d="M422.795 526.828H103.911V535.244H422.795V526.828Z" fill="#F2F2F2"/>
<path d="M422.795 548.709H103.911V557.125H422.795V548.709Z" fill="#F2F2F2"/>
<path d="M661.729 128.574C661.729 128.574 679.029 150.745 676.866 166.426C674.704 182.108 712.547 144.796 712.547 144.796C712.547 144.796 699.572 117.759 706.601 104.781C713.629 91.8026 661.729 128.574 661.729 128.574Z" fill="#FFB9B9"/>
<path d="M722.279 577.398C722.279 577.398 744.985 602.273 741.201 607.681C737.416 613.088 670.919 633.637 663.351 632.555C655.782 631.474 651.997 626.066 654.701 624.444C657.404 622.822 674.704 613.629 674.704 613.629L689.301 596.866C689.301 596.866 700.113 590.917 700.113 587.673C700.113 584.428 722.279 577.398 722.279 577.398Z" fill="#2F2E41"/>
<path d="M683.894 604.977C683.894 604.977 675.244 619.036 673.622 619.577C672 620.118 681.732 639.585 681.732 639.585L704.438 632.555L716.872 622.281L714.169 608.221L683.894 604.977Z" fill="#FFB9B9"/>
<path d="M660.647 336.763L649.835 384.89C649.835 384.89 612.532 468.707 638.482 483.307L695.247 591.999L725.523 578.48L674.704 467.085L697.951 338.926L660.647 336.763Z" fill="#D0CDE1"/>
<path opacity="0.1" d="M660.647 336.763L649.835 384.89C649.835 384.89 612.532 468.707 638.482 483.307L695.247 591.999L725.523 578.48L674.704 467.085L697.951 338.926L660.647 336.763Z" fill="black"/>
<path d="M664.432 344.334H658.946C658.519 360.965 659.449 377.604 661.729 394.083C665.513 421.662 675.244 484.93 675.244 484.93C675.244 484.93 674.163 496.826 677.407 500.612C680.651 504.397 681.191 499.53 681.732 508.182C682.272 516.834 687.408 576.989 687.408 576.989C687.408 576.989 690.922 589.295 687.138 591.999C683.354 594.702 675.785 609.303 681.191 611.466C686.597 613.629 723.901 616.333 725.523 614.71C727.144 613.088 725.523 511.427 725.523 511.427C725.523 511.427 724.441 490.878 723.36 489.796C722.279 488.715 717.413 474.115 719.035 470.87C720.657 467.626 719.576 457.892 719.576 456.27C719.576 454.648 714.71 456.27 719.035 449.24C723.36 442.21 723.901 385.972 723.901 385.972C723.901 385.972 747.148 350.282 740.119 341.09L664.432 344.334Z" fill="#D0CDE1"/>
<path d="M676.866 136.685C696.572 136.685 712.547 120.706 712.547 100.996C712.547 81.2847 696.572 65.3059 676.866 65.3059C657.16 65.3059 641.185 81.2847 641.185 100.996C641.185 120.706 657.16 136.685 676.866 136.685Z" fill="#FFB9B9"/>
<path d="M712.547 138.848C712.547 138.848 690.922 144.256 682.272 157.234L674.703 158.856V166.426C674.703 166.426 660.647 211.309 663.891 230.776C667.135 250.243 663.891 288.096 658.485 298.37C653.078 308.644 651.456 310.807 654.16 315.133C656.863 319.459 660.647 334.06 657.944 340.549C655.241 347.038 657.944 353.527 682.813 355.149C707.682 356.771 742.822 356.771 742.822 348.119C742.822 339.467 740.66 315.133 742.822 308.644C744.985 302.155 746.066 297.829 744.985 291.881C743.904 285.933 747.147 219.42 747.147 219.42C747.147 219.42 747.688 152.908 712.547 138.848Z" fill="#2F2E41"/>
<path d="M661.729 305.941L631.994 350.282C631.994 350.282 600.638 378.942 611.991 391.92C623.344 404.898 653.079 354.068 653.079 354.068L685.516 317.296L661.729 305.941Z" fill="#FFB9B9"/>
<path d="M680.65 622.281C680.65 622.281 679.569 615.251 675.785 615.251C672 615.251 646.591 632.555 646.591 632.555C646.591 632.555 613.072 636.34 626.047 643.37C639.022 650.4 718.494 651.481 719.035 648.778C719.575 646.074 720.657 619.411 716.872 619.494C713.088 619.577 682.813 625.525 682.813 625.525L680.65 622.281Z" fill="#2F2E41"/>
<path d="M679.404 82.5573C678.137 83.1823 676.739 83.4981 675.326 83.479C673.868 83.5619 672.127 83.4717 671.352 82.2336C670.985 81.4189 670.815 80.5293 670.855 79.6367C670.702 78.4905 670.319 77.3873 669.727 76.3937C669.136 75.4 668.349 74.5366 667.415 73.8555C666.481 73.1744 665.418 72.6899 664.291 72.4311C663.165 72.1723 661.997 72.1446 660.86 72.3498C661.014 74.1372 661.558 75.8691 662.452 77.4242C660.872 77.9605 659.189 78.1249 657.535 77.9047C655.881 77.6844 654.299 77.0855 652.914 76.1543L652.365 83.4384C650.426 84.3654 647.941 84.5588 646.25 83.232C644.558 81.9051 644.423 78.7911 646.336 77.8106C643.973 77.3177 641.083 76.2588 640.909 73.8507C640.751 71.6534 643.083 70.0452 643.512 67.8844C643.863 66.1222 642.897 64.2067 643.58 62.5451C644.478 60.3622 647.739 59.8019 648.393 57.5339C648.726 56.3789 648.246 55.1435 648.361 53.9468C648.66 50.8136 652.599 49.5127 655.74 49.6908C658.882 49.8689 662.311 50.7034 664.98 49.0361C666.274 48.2277 667.178 46.9338 668.315 45.9163C669.887 44.5678 671.842 43.746 673.905 43.5665C675.969 43.3871 678.036 43.859 679.817 44.9159C681.081 45.7018 682.183 46.791 683.592 47.2686C686.476 48.2462 689.484 46.3966 692.499 45.9702C693.602 45.7813 694.733 45.8449 695.808 46.1562C696.882 46.4676 697.872 47.0185 698.703 47.7677C699.51 48.5435 700.038 49.564 700.205 50.6707C700.372 51.7775 700.169 52.9085 699.628 53.888C701.396 53.5891 703.271 53.3001 704.938 53.9628C706.605 54.6255 707.878 56.622 707.107 58.242C706.821 58.6667 706.594 59.1292 706.435 59.6162C706.278 60.5586 707.186 61.3644 708.102 61.6347C709.018 61.9049 710.012 61.8544 710.909 62.1827C714.615 63.5393 713.726 69.4649 716.642 72.1235C717.643 72.8512 718.7 73.498 719.804 74.0575C721.252 75.0618 722.312 76.5331 722.806 78.2253C723.3 79.9174 723.198 81.7279 722.517 83.3538C721.932 84.6488 720.953 85.8846 721.071 87.3005C721.236 89.2864 723.364 90.3742 724.857 91.6938C726.218 92.95 727.15 94.6037 727.518 96.4197C727.886 98.2358 727.672 100.122 726.907 101.809C725.535 104.673 722.562 106.843 722.261 110.004C722.13 111.378 722.542 112.75 722.519 114.13C722.432 115.406 722.058 116.646 721.426 117.757C720.793 118.868 719.918 119.823 718.866 120.549C716.748 121.984 714.363 122.977 711.853 123.467C710.674 123.75 709.268 124.191 708.983 125.369C708.644 126.766 710.202 128.037 710.041 129.465C709.94 130.086 709.597 130.641 709.088 131.009C706.979 132.659 703.641 131.244 702.352 128.897C701.062 126.551 701.227 123.707 701.427 121.036L702.154 111.325C702.38 108.304 702.358 104.716 699.896 102.951C697.174 101 693.209 102.58 690.13 101.262C686.922 99.888 685.771 95.8681 685.901 92.3802C686.03 88.8922 687.029 85.3989 686.455 81.9557C685.743 77.6889 681.948 74.8212 678.117 77.5862C681.484 77.1273 682.066 80.9926 679.404 82.5573Z" fill="#2F2E41"/>
<path opacity="0.1" d="M709.304 164.804C709.304 164.804 687.679 173.456 687.679 191.842C687.679 210.227 688.76 234.561 684.975 242.672C681.191 250.784 677.947 253.488 680.11 259.977C682.272 266.466 686.057 265.384 680.11 270.251C674.163 275.118 674.703 267.006 674.163 275.118C673.622 283.229 679.569 284.31 674.163 288.096C668.757 291.881 654.7 307.022 660.647 311.889C666.594 316.756 682.272 332.437 687.679 326.489C693.085 320.541 695.788 305.4 703.357 306.481C710.926 307.563 712.007 308.104 710.925 302.696C709.844 297.288 704.979 297.288 711.466 295.666C717.954 294.044 720.657 297.829 718.494 292.422C716.332 287.014 714.71 284.851 719.035 278.903C723.36 272.955 725.522 271.332 724.982 265.384C724.441 259.436 736.876 205.901 736.876 205.901C736.876 205.901 740.66 160.478 709.304 164.804Z" fill="black"/>
<path opacity="0.1" d="M703.357 163.723C703.357 163.723 681.732 172.375 681.732 190.76C681.732 209.146 682.813 233.48 679.029 241.591C675.244 249.702 672 252.406 674.163 258.895C676.325 265.384 680.11 264.303 674.163 269.169C668.216 274.036 668.757 265.925 668.216 274.036C667.675 282.147 673.622 283.229 668.216 287.014C662.81 290.799 648.754 305.941 654.7 310.807C660.647 315.674 676.325 331.356 681.732 325.408C687.138 319.459 689.841 304.318 697.41 305.4C704.979 306.481 706.06 307.022 704.979 301.614C703.897 296.207 699.032 296.207 705.519 294.585C712.007 292.962 714.71 296.748 712.547 291.34C710.385 285.933 708.763 283.77 713.088 277.821C717.413 271.873 719.576 270.251 719.035 264.303C718.494 258.354 730.929 204.82 730.929 204.82C730.929 204.82 734.713 159.397 703.357 163.723Z" fill="black"/>
<path d="M706.06 162.101C706.06 162.101 684.435 170.753 684.435 189.138C684.435 207.524 685.516 231.858 681.732 239.969C677.947 248.08 674.704 250.784 676.866 257.273C679.029 263.762 682.813 262.68 676.866 267.547C670.919 272.414 671.46 264.303 670.919 272.414C670.379 280.525 676.326 281.607 670.919 285.392C665.513 289.177 651.457 304.318 657.404 309.185C663.35 314.052 679.029 329.734 684.435 323.786C689.841 317.837 692.544 302.696 700.113 303.778C707.682 304.859 708.763 305.4 707.682 299.992C706.601 294.585 701.735 294.585 708.223 292.963C714.71 291.34 717.413 295.126 715.251 289.718C713.088 284.311 711.466 282.148 715.791 276.199C720.116 270.251 722.279 268.629 721.738 262.68C721.198 256.732 733.632 203.198 733.632 203.198C733.632 203.198 737.416 157.775 706.06 162.101Z" fill="#2F2E41"/>
<path d="M819.081 535.698C819.081 583.009 848.755 621.292 885.425 621.292L819.081 535.698Z" fill="#2F2E41"/>
<path d="M885.425 621.292C885.425 573.45 918.539 534.736 959.462 534.736L885.425 621.292Z" fill="#88AEED"/>
<path d="M843.119 539.987C843.119 584.927 862.041 621.292 885.426 621.292L843.119 539.987Z" fill="#88AEED"/>
<path d="M885.425 621.292C885.425 560.16 923.7 510.693 971 510.693L885.425 621.292Z" fill="#2F2E41"/>
<path d="M871.468 621.896C871.468 621.896 880.877 621.606 883.713 619.586C886.548 617.567 898.185 615.155 898.889 618.394C899.592 621.633 913.029 634.504 902.406 634.589C891.784 634.675 877.724 632.934 874.894 631.21C872.064 629.486 871.468 621.896 871.468 621.896Z" fill="#A8A8A8"/>
<path opacity="0.2" d="M902.596 633.462C891.973 633.548 877.914 631.807 875.084 630.083C872.929 628.769 872.07 624.057 871.782 621.884C871.583 621.892 871.468 621.896 871.468 621.896C871.468 621.896 872.064 629.486 874.894 631.21C877.724 632.934 891.784 634.675 902.406 634.589C905.472 634.565 906.531 633.473 906.473 631.857C906.047 632.834 904.878 633.443 902.596 633.462Z" fill="black"/>
</g>
<defs>
<clipPath id="clip0">
<rect width="971" height="680" fill="white"/>
</clipPath>
</defs>
</svg>
