<svg width="809" height="561" viewBox="0 0 809 561" fill="none" xmlns="http://www.w3.org/2000/svg">
<g clip-path="url(#clip0)">
<path d="M736.263 292.213C725.359 323.043 710.167 352.182 691.133 378.774C690.695 379.392 690.25 379.996 689.801 380.611L632.053 361.909C632.314 361.313 632.598 360.645 632.903 359.915C651.089 316.896 760.54 54.6695 748.918 0C750.028 4.48917 786.291 153.01 736.263 292.213Z" fill="#E6E6E6"/>
<path d="M702.275 382.382C701.569 382.913 700.843 383.438 700.11 383.95L656.789 369.92C657.307 369.441 657.91 368.876 658.604 368.239C669.944 357.639 703.634 325.881 736.264 292.213C771.329 256.033 805.177 217.655 808.779 200.965C808.101 204.773 786.736 320.63 702.275 382.382Z" fill="#E6E6E6"/>
<path d="M767.534 560.418H24.9009C18.2968 560.418 11.9631 557.795 7.2933 553.125C2.62348 548.455 0 542.121 0 535.517C269.205 504.231 533.35 504.231 792.435 535.517C792.435 542.121 789.812 548.455 785.142 553.125C780.472 557.795 774.139 560.418 767.534 560.418Z" fill="#2F2E41"/>
<path d="M792.435 536.982L0 535.517L91.8405 380.985L92.2799 380.253V39.6813C92.2796 35.5475 93.0935 31.4541 94.6753 27.6349C96.2571 23.8157 98.5757 20.3455 101.499 17.4224C104.422 14.4994 107.892 12.1808 111.711 10.599C115.53 9.01722 119.624 8.20327 123.758 8.20361H664.284C668.417 8.20327 672.511 9.01723 676.33 10.599C680.149 12.1808 683.619 14.4994 686.542 17.4225C689.465 20.3455 691.784 23.8157 693.366 27.6349C694.948 31.4541 695.762 35.5475 695.761 39.6813V382.596L792.435 536.982Z" fill="#3F3D56"/>
<path d="M123.04 30.175C120.322 30.1781 117.715 31.2593 115.793 33.1815C113.871 35.1038 112.79 37.71 112.787 40.4284V350.958C112.79 353.676 113.871 356.282 115.793 358.204C117.715 360.126 120.322 361.208 123.04 361.211H669.396C672.114 361.208 674.72 360.126 676.642 358.204C678.564 356.282 679.646 353.676 679.649 350.958V40.4284C679.646 37.71 678.565 35.1039 676.642 33.1817C674.72 31.2595 672.114 30.1782 669.396 30.175H123.04Z" fill="white"/>
<path d="M126.631 402.224C125.791 402.226 124.968 402.467 124.261 402.92C123.554 403.373 122.991 404.019 122.638 404.782L94.3394 466.302C94.0313 466.971 93.8966 467.707 93.9475 468.443C93.9985 469.178 94.2336 469.888 94.6311 470.509C95.0287 471.129 95.5759 471.64 96.2224 471.994C96.869 472.347 97.5941 472.533 98.331 472.533H693.442C694.191 472.533 694.928 472.341 695.582 471.976C696.236 471.612 696.786 471.086 697.18 470.448C697.574 469.811 697.798 469.084 697.831 468.336C697.865 467.587 697.707 466.843 697.372 466.173L666.612 404.653C666.249 403.922 665.688 403.307 664.994 402.877C664.299 402.448 663.499 402.222 662.682 402.224L126.631 402.224Z" fill="#2F2E41"/>
<path d="M394.021 25.0483C397.661 25.0483 400.612 22.0972 400.612 18.4569C400.612 14.8166 397.661 11.8655 394.021 11.8655C390.38 11.8655 387.429 14.8166 387.429 18.4569C387.429 22.0972 390.38 25.0483 394.021 25.0483Z" fill="white"/>
<path d="M335.526 484.251C334.56 484.252 333.621 484.571 332.854 485.159C332.088 485.746 331.535 486.57 331.283 487.502L324.185 513.868C324.009 514.519 323.986 515.202 324.117 515.864C324.248 516.525 324.529 517.148 324.939 517.683C325.35 518.219 325.878 518.653 326.482 518.951C327.087 519.25 327.753 519.405 328.427 519.405H463.425C464.125 519.405 464.816 519.237 465.438 518.916C466.061 518.595 466.598 518.13 467.004 517.559C467.41 516.989 467.674 516.329 467.774 515.636C467.873 514.942 467.805 514.235 467.576 513.573L458.45 487.207C458.151 486.344 457.59 485.596 456.846 485.066C456.102 484.536 455.211 484.251 454.297 484.251L335.526 484.251Z" fill="#2F2E41"/>
<path d="M695.761 375.126V380.985H91.8398L92.2948 380.253V375.126H695.761Z" fill="#2F2E41"/>
<path d="M508.004 85.0391H365.514V87.6417H508.004C515.019 87.6417 521.747 90.4284 526.707 95.3889C531.668 100.349 534.455 107.077 534.455 114.092C534.455 121.108 531.668 127.836 526.707 132.796C521.747 137.757 515.019 140.543 508.004 140.543H292.392C285.377 140.543 278.649 137.757 273.689 132.796C268.728 127.836 265.941 121.108 265.941 114.092C265.941 107.077 268.728 100.349 273.689 95.3889C278.649 90.4284 285.377 87.6417 292.392 87.6417H300.45V85.0391H292.392C284.69 85.0436 277.304 88.1065 271.859 93.5546C266.415 99.0027 263.356 106.39 263.356 114.092C263.356 121.795 266.415 129.182 271.859 134.63C277.304 140.078 284.69 143.141 292.392 143.146H508.004C511.82 143.148 515.6 142.398 519.127 140.939C522.654 139.48 525.859 137.34 528.559 134.642C531.258 131.944 533.4 128.741 534.861 125.215C536.322 121.689 537.074 117.909 537.074 114.092C537.074 110.276 536.322 106.496 534.861 102.97C533.4 99.4442 531.258 96.2407 528.559 93.5426C525.859 90.8445 522.654 88.7048 519.127 87.2457C515.6 85.7867 511.82 85.0368 508.004 85.0391Z" fill="#E6E6E6"/>
<path d="M508.004 174.828H365.514V177.43H508.004C515.016 177.435 521.74 180.223 526.697 185.183C531.654 190.143 534.438 196.869 534.438 203.881C534.438 210.893 531.654 217.619 526.697 222.579C521.74 227.539 515.016 230.328 508.004 230.332H292.392C285.377 230.332 278.649 227.545 273.689 222.585C268.728 217.624 265.941 210.896 265.941 203.881C265.941 196.866 268.728 190.138 273.689 185.177C278.649 180.217 285.377 177.43 292.392 177.43H300.45V174.828H292.392C284.69 174.832 277.304 177.895 271.859 183.343C266.415 188.791 263.356 196.179 263.356 203.881C263.356 211.584 266.415 218.971 271.859 224.419C277.304 229.867 284.69 232.93 292.392 232.934H508.004C511.82 232.937 515.6 232.187 519.127 230.728C522.654 229.269 525.859 227.129 528.559 224.431C531.258 221.733 533.4 218.529 534.861 215.003C536.322 211.477 537.074 207.698 537.074 203.881C537.074 200.064 536.322 196.285 534.861 192.759C533.4 189.233 531.258 186.029 528.559 183.331C525.859 180.633 522.654 178.493 519.127 177.034C515.6 175.575 511.82 174.825 508.004 174.828Z" fill="#E6E6E6"/>
<path d="M508.004 264.616H365.514V267.219H508.004C515.019 267.219 521.747 270.006 526.707 274.966C531.668 279.927 534.454 286.655 534.454 293.67C534.454 300.685 531.668 307.413 526.707 312.373C521.747 317.334 515.019 320.121 508.004 320.121H292.392C285.377 320.121 278.649 317.334 273.689 312.373C268.728 307.413 265.941 300.685 265.941 293.67C265.941 286.655 268.728 279.927 273.689 274.966C278.649 270.006 285.377 267.219 292.392 267.219H300.45V264.616H292.392C284.687 264.616 277.297 267.677 271.848 273.126C266.4 278.575 263.339 285.964 263.339 293.67C263.339 301.375 266.4 308.765 271.848 314.214C277.297 319.662 284.687 322.723 292.392 322.723H508.004C511.819 322.723 515.597 321.972 519.122 320.512C522.647 319.052 525.85 316.912 528.548 314.214C531.245 311.516 533.385 308.313 534.845 304.788C536.306 301.263 537.057 297.485 537.057 293.67C537.057 289.855 536.306 286.077 534.845 282.552C533.385 279.027 531.245 275.824 528.548 273.126C525.85 270.428 522.647 268.288 519.122 266.828C515.597 265.368 511.819 264.616 508.004 264.616Z" fill="#E6E6E6"/>
<path d="M316.533 78.1634C314.503 78.1964 312.567 79.0261 311.143 80.4736C309.719 81.921 308.92 83.8703 308.92 85.9009C308.92 87.9315 309.719 89.8808 311.143 91.3283C312.567 92.7758 314.503 93.6055 316.533 93.6384H350.478C351.494 93.6551 352.504 93.4715 353.449 93.0981C354.394 92.7246 355.256 92.1687 355.987 91.462C356.717 90.7553 357.301 89.9117 357.705 88.9793C358.109 88.0469 358.326 87.0441 358.343 86.028C358.36 85.0119 358.176 84.0024 357.802 83.0573C357.429 82.1121 356.873 81.2498 356.166 80.5195C355.46 79.7892 354.616 79.2053 353.684 78.801C352.751 78.3968 351.748 78.1801 350.732 78.1634C350.648 78.162 350.563 78.162 350.478 78.1634H316.533Z" fill="#3F3D56"/>
<path d="M316.533 169.254C314.503 169.286 312.567 170.116 311.143 171.564C309.719 173.011 308.92 174.96 308.92 176.991C308.92 179.022 309.719 180.971 311.143 182.418C312.567 183.866 314.503 184.696 316.533 184.729H350.478C352.53 184.762 354.512 183.979 355.987 182.552C357.462 181.125 358.309 179.17 358.343 177.118C358.377 175.066 357.594 173.085 356.166 171.61C354.739 170.135 352.784 169.287 350.732 169.254C350.648 169.252 350.563 169.252 350.478 169.254H316.533Z" fill="#3F3D56"/>
<path d="M316.533 257.741C314.503 257.774 312.567 258.604 311.143 260.051C309.719 261.499 308.921 263.448 308.921 265.478C308.921 267.509 309.719 269.458 311.143 270.905C312.567 272.353 314.503 273.183 316.533 273.216H350.478C352.53 273.25 354.512 272.467 355.987 271.039C357.462 269.612 358.309 267.657 358.343 265.605C358.376 263.553 357.593 261.572 356.166 260.097C354.739 258.622 352.784 257.775 350.732 257.741C350.648 257.739 350.563 257.739 350.478 257.741H316.533Z" fill="#3F3D56"/>
<path d="M303.069 106.355C301.039 106.388 299.103 107.218 297.679 108.665C296.255 110.112 295.457 112.062 295.457 114.092C295.457 116.123 296.255 118.072 297.679 119.52C299.103 120.967 301.039 121.797 303.069 121.83H497.073C498.089 121.847 499.098 121.663 500.043 121.289C500.989 120.916 501.851 120.36 502.581 119.653C503.311 118.947 503.895 118.103 504.3 117.171C504.704 116.238 504.921 115.235 504.937 114.219C504.954 113.203 504.77 112.194 504.397 111.249C504.023 110.304 503.467 109.441 502.761 108.711C502.054 107.981 501.21 107.397 500.278 106.992C499.346 106.588 498.343 106.372 497.327 106.355C497.242 106.353 497.157 106.353 497.073 106.355H303.069Z" fill="#88AEED"/>
<path d="M303.069 196.144C301.039 196.177 299.103 197.007 297.679 198.454C296.255 199.901 295.457 201.851 295.457 203.881C295.457 205.912 296.255 207.861 297.679 209.308C299.103 210.756 301.039 211.586 303.069 211.619H497.073C498.089 211.635 499.098 211.452 500.043 211.078C500.988 210.705 501.851 210.149 502.581 209.442C503.311 208.736 503.895 207.892 504.3 206.96C504.704 206.027 504.92 205.024 504.937 204.008C504.954 202.992 504.77 201.983 504.397 201.038C504.023 200.092 503.467 199.23 502.761 198.5C502.054 197.769 501.21 197.186 500.278 196.781C499.346 196.377 498.343 196.16 497.327 196.144C497.242 196.142 497.157 196.142 497.073 196.144H303.069Z" fill="#88AEED"/>
<path d="M303.069 285.932C301.039 285.966 299.103 286.795 297.679 288.243C296.255 289.69 295.457 291.639 295.457 293.67C295.457 295.7 296.255 297.65 297.679 299.097C299.103 300.545 301.039 301.374 303.069 301.407H497.073C498.089 301.424 499.098 301.241 500.043 300.867C500.988 300.494 501.851 299.938 502.581 299.231C503.311 298.524 503.895 297.681 504.3 296.748C504.704 295.816 504.92 294.813 504.937 293.797C504.954 292.781 504.77 291.771 504.397 290.826C504.023 289.881 503.467 289.019 502.761 288.289C502.054 287.558 501.21 286.974 500.278 286.57C499.346 286.166 498.343 285.949 497.327 285.932C497.242 285.931 497.157 285.931 497.073 285.932H303.069Z" fill="#E6E6E6"/>
<path d="M231.015 128.978C239.573 128.978 246.51 122.041 246.51 113.483C246.51 104.925 239.573 97.9875 231.015 97.9875C222.457 97.9875 215.52 104.925 215.52 113.483C215.52 122.041 222.457 128.978 231.015 128.978Z" fill="#88AEED"/>
<path d="M229.577 119.849L225.063 114.045L227.688 112.003L229.826 114.751L237.046 107.129L239.461 109.417L229.577 119.849Z" fill="white"/>
<path d="M231.015 218.767C239.573 218.767 246.51 211.829 246.51 203.272C246.51 194.714 239.573 187.776 231.015 187.776C222.457 187.776 215.52 194.714 215.52 203.272C215.52 211.829 222.457 218.767 231.015 218.767Z" fill="#88AEED"/>
<path d="M229.577 209.638L225.063 203.834L227.688 201.792L229.826 204.54L237.046 196.918L239.461 199.206L229.577 209.638Z" fill="white"/>
<path d="M231.015 308.556C239.573 308.556 246.51 301.618 246.51 293.06C246.51 284.503 239.573 277.565 231.015 277.565C222.457 277.565 215.52 284.503 215.52 293.06C215.52 301.618 222.457 308.556 231.015 308.556Z" fill="#E6E6E6"/>
<path d="M570.65 128.978C579.208 128.978 586.146 122.041 586.146 113.483C586.146 104.925 579.208 97.9875 570.65 97.9875C562.093 97.9875 555.155 104.925 555.155 113.483C555.155 122.041 562.093 128.978 570.65 128.978Z" fill="#E6E6E6"/>
<path d="M570.65 218.767C579.208 218.767 586.146 211.829 586.146 203.272C586.146 194.714 579.208 187.776 570.65 187.776C562.093 187.776 555.155 194.714 555.155 203.272C555.155 211.829 562.093 218.767 570.65 218.767Z" fill="#E6E6E6"/>
<path d="M570.65 308.556C579.208 308.556 586.146 301.618 586.146 293.06C586.146 284.503 579.208 277.565 570.65 277.565C562.093 277.565 555.155 284.503 555.155 293.06C555.155 301.618 562.093 308.556 570.65 308.556Z" fill="#E6E6E6"/>
<path d="M229.577 299.427L225.063 293.623L227.688 291.581L229.826 294.329L237.046 286.707L239.461 288.994L229.577 299.427Z" fill="white"/>
<path d="M566.735 108.506L565.445 109.795L574.11 118.46L575.4 117.17L566.735 108.506Z" fill="white"/>
<path d="M574.566 108.506L565.901 117.17L567.191 118.46L575.856 109.795L574.566 108.506Z" fill="white"/>
<path d="M566.735 198.295L565.445 199.584L574.11 208.249L575.4 206.959L566.735 198.295Z" fill="white"/>
<path d="M574.566 198.294L565.901 206.959L567.191 208.249L575.856 199.584L574.566 198.294Z" fill="white"/>
<path d="M566.735 288.083L565.445 289.373L574.11 298.038L575.4 296.748L566.735 288.083Z" fill="white"/>
<path d="M574.566 288.083L565.901 296.748L567.191 298.038L575.856 289.373L574.566 288.083Z" fill="white"/>
<path d="M233.995 286.853C235.345 285.96 236.485 284.785 237.336 283.409C238.188 282.033 238.731 280.489 238.928 278.883C239.125 277.277 238.971 275.647 238.477 274.106C237.983 272.565 237.161 271.15 236.067 269.957L221.192 253.743L206.904 260.977L217.84 282.576C218.553 283.984 219.555 285.225 220.782 286.218C222.009 287.211 223.432 287.934 224.958 288.338C226.484 288.742 228.078 288.818 229.636 288.562C231.193 288.306 232.679 287.724 233.995 286.853Z" fill="#FFB8B8"/>
<path d="M41.7064 335.008C43.3138 334.821 44.8614 334.288 46.2427 333.445C47.624 332.602 48.806 331.47 49.7072 330.126C50.6084 328.782 51.2074 327.258 51.4628 325.66C51.7182 324.063 51.6241 322.428 51.1867 320.87L45.2399 299.685H29.2251V323.894C29.2251 325.473 29.5591 327.033 30.205 328.473C30.851 329.914 31.7944 331.201 32.9732 332.25C34.152 333.3 35.5396 334.089 37.0447 334.564C38.5499 335.039 40.1386 335.191 41.7064 335.008Z" fill="#FFB8B8"/>
<path d="M134.211 494.829L164.462 490.084L152.006 477.034H134.211V494.829Z" fill="#FFB8B8"/>
<path d="M36.936 496.015L68.3726 504.319C62.5825 492.308 59.017 481.68 61.2549 474.662L46.4263 472.882L36.936 496.015Z" fill="#FFB8B8"/>
<path d="M43.46 475.848L61.848 479.407L112.265 316.886L133.618 478.814H153.192L151.412 249.861H75.49L43.46 475.848Z" fill="#575A88"/>
<path d="M140.002 502.032L169.925 492.189C170.719 491.927 171.447 491.498 172.06 490.931C172.673 490.363 173.157 489.67 173.478 488.898C173.8 488.127 173.951 487.295 173.922 486.46C173.894 485.625 173.685 484.806 173.312 484.058C172.798 483.032 171.993 482.18 170.997 481.61C170.001 481.04 168.859 480.777 167.714 480.854L160.927 481.313L158.267 479.816C157.986 479.658 157.664 479.592 157.344 479.626C157.024 479.66 156.723 479.793 156.482 480.006C156.241 480.219 156.073 480.502 156 480.815C155.928 481.128 155.954 481.456 156.077 481.754L158.53 487.711L133.618 485.932L132.389 495.765C132.267 496.741 132.394 497.733 132.758 498.647C133.122 499.561 133.711 500.368 134.471 500.994C135.23 501.619 136.136 502.042 137.103 502.224C138.07 502.405 139.068 502.339 140.002 502.032Z" fill="#575A88"/>
<path d="M38.8682 506.556L71.395 508.665C72.258 508.721 73.1228 508.591 73.9308 508.283C74.7388 507.974 75.4709 507.496 76.0774 506.879C76.6838 506.263 77.1504 505.523 77.4453 504.71C77.7403 503.897 77.8567 503.03 77.7866 502.168C77.6905 500.985 77.2465 499.856 76.5106 498.924C75.7747 497.992 74.7798 497.299 73.6508 496.931L66.9577 494.749L64.9824 492.285C64.7743 492.025 64.4905 491.837 64.1704 491.746C63.8503 491.655 63.5098 491.666 63.1963 491.778C62.8828 491.889 62.6118 492.096 62.4211 492.368C62.2304 492.641 62.1293 492.966 62.132 493.299L62.1857 499.966L38.9581 488.635L33.98 497.599C33.4857 498.49 33.2245 499.491 33.2207 500.509C33.217 501.527 33.4708 502.53 33.9586 503.424C34.4464 504.317 35.1524 505.073 36.0107 505.621C36.8691 506.169 37.8521 506.491 38.8682 506.556Z" fill="#575A88"/>
<path d="M108.113 121.742C120.233 121.742 130.059 111.916 130.059 99.7956C130.059 87.6751 120.233 77.8494 108.113 77.8494C95.9922 77.8494 86.1665 87.6751 86.1665 99.7956C86.1665 111.916 95.9922 121.742 108.113 121.742Z" fill="#FFB8B8"/>
<path d="M93.8774 140.129H124.128V111.065H93.8774C96.3773 120.041 96.0541 129.821 93.8774 140.129Z" fill="#FFB8B8"/>
<path d="M71.3382 252.826L154.378 254.013L162.682 166.283C162.682 160.559 160.89 154.979 157.556 150.327C154.222 145.674 149.515 142.182 144.096 140.341L131.246 135.977L124.128 127.673C115.141 125.731 105.364 126.202 95.0639 128.266L87.3531 139.536L79.0496 142.186C73.4067 143.987 68.5023 147.574 65.0757 152.405C61.6491 157.237 59.886 163.051 60.0523 168.972C66.231 200.886 71.0355 230.547 71.3382 252.826Z" fill="#88AEED"/>
<path d="M26.2593 299.685L47.0193 302.057L70.745 206.561L73.1176 144.875L72.4171 145.214C66.9256 147.871 62.1283 151.77 58.4052 156.603C54.6821 161.436 52.1356 167.069 50.9672 173.057L26.2593 299.685Z" fill="#88AEED"/>
<path d="M207.761 264.096L223.776 256.385L176.802 168.734C169.98 156.004 158.89 146.086 145.481 140.722L154.378 196.478L207.761 264.096Z" fill="#88AEED"/>
<path d="M94.5485 119.549C94.5485 119.549 116.069 118.272 116.535 114.55C117.001 110.828 120.143 102.336 123.865 102.802C127.587 103.268 137.903 90.8591 135.694 85.8568C133.485 80.8545 123.057 62.4374 101.768 70.9258C80.4793 79.4143 82.9189 100.702 85.1283 105.704C87.3377 110.707 94.5485 119.549 94.5485 119.549Z" fill="#2F2E41"/>
<path d="M621.219 388.547C620.984 388.548 620.755 388.625 620.568 388.768C620.382 388.912 620.247 389.112 620.186 389.339L618.457 395.76C618.415 395.918 618.409 396.084 618.441 396.246C618.473 396.407 618.541 396.558 618.641 396.689C618.741 396.819 618.87 396.925 619.017 396.997C619.164 397.07 619.326 397.108 619.49 397.108H652.364C652.535 397.108 652.703 397.067 652.855 396.989C653.006 396.911 653.137 396.797 653.236 396.659C653.335 396.52 653.399 396.359 653.423 396.19C653.448 396.021 653.431 395.849 653.375 395.688L651.153 389.267C651.08 389.057 650.943 388.875 650.762 388.746C650.581 388.617 650.364 388.547 650.142 388.547H621.219Z" fill="#88AEED"/>
<path d="M573.219 388.547C572.984 388.548 572.755 388.625 572.568 388.768C572.382 388.912 572.247 389.112 572.186 389.339L570.457 395.76C570.415 395.918 570.409 396.084 570.441 396.246C570.473 396.407 570.541 396.558 570.641 396.689C570.741 396.819 570.87 396.925 571.017 396.997C571.164 397.07 571.326 397.108 571.49 397.108H604.364C604.535 397.108 604.703 397.067 604.855 396.989C605.006 396.911 605.137 396.797 605.236 396.659C605.335 396.52 605.399 396.359 605.423 396.19C605.448 396.021 605.431 395.849 605.375 395.688L603.153 389.267C603.08 389.057 602.943 388.875 602.762 388.746C602.581 388.617 602.364 388.547 602.142 388.547H573.219Z" fill="#88AEED"/>
</g>
<defs>
<clipPath id="clip0">
<rect width="808.778" height="560.418" fill="white"/>
</clipPath>
</defs>
</svg>
