<svg width="276" height="57" viewBox="0 0 276 57" fill="none" xmlns="http://www.w3.org/2000/svg">
<path d="M92.76 39.12C92.8667 39.3333 92.92 39.56 92.92 39.8C92.92 40.2 92.76 40.5333 92.44 40.8C92.1467 41.0667 91.7867 41.2 91.36 41.2C90.6933 41.2 90.2267 40.88 89.96 40.24L87.12 33.76H72.04L69.16 40.24C68.8933 40.88 68.4267 41.2 67.76 41.2C67.3333 41.2 66.96 41.0667 66.64 40.8C66.32 40.5067 66.16 40.16 66.16 39.76C66.16 39.5467 66.2133 39.3333 66.32 39.12L77.76 13.68C77.92 13.3067 78.16 13.0267 78.48 12.84C78.8 12.6533 79.1467 12.56 79.52 12.56C79.92 12.56 80.28 12.6667 80.6 12.88C80.92 13.0667 81.16 13.3333 81.32 13.68L92.76 39.12ZM73.24 31.04H85.92L79.56 16.68L73.24 31.04ZM111.863 21.12C112.369 21.12 112.756 21.2667 113.023 21.56C113.316 21.8533 113.463 22.24 113.463 22.72V39.64C113.463 40.0933 113.316 40.4667 113.023 40.76C112.756 41.0533 112.369 41.2 111.863 41.2C111.383 41.2 110.996 41.0667 110.703 40.8C110.436 40.5067 110.303 40.1333 110.303 39.68V37.68C109.689 38.8533 108.823 39.7467 107.703 40.36C106.609 40.9733 105.369 41.28 103.983 41.28C101.663 41.28 99.9158 40.64 98.7425 39.36C97.5692 38.0533 96.9825 36.1333 96.9825 33.6V22.72C96.9825 22.24 97.1292 21.8533 97.4225 21.56C97.7158 21.2667 98.1158 21.12 98.6225 21.12C99.1292 21.12 99.5158 21.2667 99.7825 21.56C100.076 21.8533 100.223 22.24 100.223 22.72V33.52C100.223 35.2533 100.569 36.5333 101.263 37.36C101.956 38.16 103.049 38.56 104.543 38.56C106.249 38.56 107.623 38.0133 108.663 36.92C109.703 35.8 110.223 34.3333 110.223 32.52V22.72C110.223 22.24 110.369 21.8533 110.663 21.56C110.956 21.2667 111.356 21.12 111.863 21.12ZM128.484 38.64C129.418 38.72 129.884 39.1467 129.884 39.92C129.884 40.3733 129.711 40.72 129.364 40.96C129.044 41.1733 128.551 41.2533 127.884 41.2L126.804 41.12C124.671 40.96 123.098 40.32 122.084 39.2C121.071 38.08 120.564 36.3867 120.564 34.12V24.08H117.884C117.431 24.08 117.071 23.9733 116.804 23.76C116.564 23.52 116.444 23.2133 116.444 22.84C116.444 22.44 116.564 22.12 116.804 21.88C117.071 21.64 117.431 21.52 117.884 21.52H120.564V17C120.564 16.4933 120.711 16.1067 121.004 15.84C121.298 15.5467 121.698 15.4 122.204 15.4C122.684 15.4 123.071 15.5467 123.364 15.84C123.658 16.1067 123.804 16.4933 123.804 17V21.52H128.244C128.671 21.52 129.004 21.64 129.244 21.88C129.511 22.12 129.644 22.44 129.644 22.84C129.644 23.2133 129.511 23.52 129.244 23.76C129.004 23.9733 128.671 24.08 128.244 24.08H123.804V34.28C123.804 35.7467 124.098 36.8133 124.684 37.48C125.298 38.12 126.204 38.48 127.404 38.56L128.484 38.64ZM141.158 41.28C139.318 41.28 137.691 40.8667 136.278 40.04C134.891 39.2133 133.811 38.04 133.038 36.52C132.291 34.9733 131.918 33.1867 131.918 31.16C131.918 29.1333 132.291 27.36 133.038 25.84C133.811 24.2933 134.891 23.1067 136.278 22.28C137.691 21.4533 139.318 21.04 141.158 21.04C142.998 21.04 144.625 21.4533 146.038 22.28C147.451 23.1067 148.531 24.2933 149.278 25.84C150.051 27.36 150.438 29.1333 150.438 31.16C150.438 33.1867 150.051 34.9733 149.278 36.52C148.531 38.04 147.451 39.2133 146.038 40.04C144.625 40.8667 142.998 41.28 141.158 41.28ZM141.158 38.6C143.078 38.6 144.545 37.9733 145.558 36.72C146.598 35.44 147.118 33.5867 147.118 31.16C147.118 28.7867 146.598 26.96 145.558 25.68C144.518 24.3733 143.051 23.72 141.158 23.72C139.265 23.72 137.798 24.3733 136.758 25.68C135.718 26.96 135.198 28.7867 135.198 31.16C135.198 33.56 135.705 35.4 136.718 36.68C137.758 37.96 139.238 38.6 141.158 38.6ZM164.227 38.64C165.16 38.72 165.627 39.1467 165.627 39.92C165.627 40.3733 165.453 40.72 165.107 40.96C164.787 41.1733 164.293 41.2533 163.627 41.2L162.547 41.12C160.413 40.96 158.84 40.32 157.827 39.2C156.813 38.08 156.307 36.3867 156.307 34.12V24.08H153.627C153.173 24.08 152.813 23.9733 152.547 23.76C152.307 23.52 152.187 23.2133 152.187 22.84C152.187 22.44 152.307 22.12 152.547 21.88C152.813 21.64 153.173 21.52 153.627 21.52H156.307V17C156.307 16.4933 156.453 16.1067 156.747 15.84C157.04 15.5467 157.44 15.4 157.947 15.4C158.427 15.4 158.813 15.5467 159.107 15.84C159.4 16.1067 159.547 16.4933 159.547 17V21.52H163.987C164.413 21.52 164.747 21.64 164.987 21.88C165.253 22.12 165.387 22.44 165.387 22.84C165.387 23.2133 165.253 23.52 164.987 23.76C164.747 23.9733 164.413 24.08 163.987 24.08H159.547V34.28C159.547 35.7467 159.84 36.8133 160.427 37.48C161.04 38.12 161.947 38.48 163.147 38.56L164.227 38.64ZM176.78 21.04C181.66 21.04 184.1 23.6 184.1 28.72V39.6C184.1 40.08 183.954 40.4667 183.66 40.76C183.394 41.0533 183.02 41.2 182.54 41.2C182.06 41.2 181.674 41.0533 181.38 40.76C181.087 40.4667 180.94 40.08 180.94 39.6V37.68C180.434 38.8267 179.66 39.72 178.62 40.36C177.58 40.9733 176.38 41.28 175.02 41.28C173.767 41.28 172.607 41.0267 171.54 40.52C170.5 40.0133 169.674 39.3067 169.06 38.4C168.447 37.4933 168.14 36.4933 168.14 35.4C168.14 33.9333 168.514 32.8 169.26 32C170.007 31.1733 171.234 30.5867 172.94 30.24C174.647 29.8667 177.02 29.68 180.06 29.68H180.94V28.36C180.94 26.76 180.607 25.5867 179.94 24.84C179.3 24.0933 178.247 23.72 176.78 23.72C174.967 23.72 173.127 24.2133 171.26 25.2C170.54 25.6533 170.034 25.88 169.74 25.88C169.42 25.88 169.154 25.76 168.94 25.52C168.727 25.28 168.62 24.9733 168.62 24.6C168.62 24.2267 168.727 23.9067 168.94 23.64C169.18 23.3467 169.554 23.0533 170.06 22.76C170.994 22.2267 172.047 21.8133 173.22 21.52C174.42 21.2 175.607 21.04 176.78 21.04ZM175.46 38.72C177.06 38.72 178.367 38.1867 179.38 37.12C180.42 36.0267 180.94 34.6267 180.94 32.92V31.76H180.22C177.874 31.76 176.087 31.8667 174.86 32.08C173.634 32.2667 172.754 32.6 172.22 33.08C171.714 33.5333 171.46 34.2133 171.46 35.12C171.46 36.16 171.834 37.0267 172.58 37.72C173.354 38.3867 174.314 38.72 175.46 38.72ZM196.591 41.28C195.365 41.28 194.191 41.1333 193.071 40.84C191.978 40.5467 191.005 40.1333 190.151 39.6C189.671 39.28 189.325 38.9867 189.111 38.72C188.925 38.4267 188.831 38.08 188.831 37.68C188.831 37.3333 188.925 37.0533 189.111 36.84C189.325 36.6 189.591 36.48 189.911 36.48C190.231 36.48 190.698 36.68 191.311 37.08C192.111 37.56 192.898 37.9467 193.671 38.24C194.471 38.5067 195.458 38.64 196.631 38.64C198.071 38.64 199.191 38.3867 199.991 37.88C200.791 37.3733 201.191 36.64 201.191 35.68C201.191 35.0933 201.045 34.6267 200.751 34.28C200.458 33.9067 199.951 33.5867 199.231 33.32C198.511 33.0267 197.458 32.7333 196.071 32.44C193.725 31.9333 192.045 31.2533 191.031 30.4C190.018 29.5467 189.511 28.3867 189.511 26.92C189.511 25.7733 189.831 24.76 190.471 23.88C191.111 23 191.991 22.3067 193.111 21.8C194.258 21.2933 195.551 21.04 196.991 21.04C198.031 21.04 199.031 21.1867 199.991 21.48C200.978 21.7467 201.845 22.1333 202.591 22.64C203.498 23.28 203.951 23.9467 203.951 24.64C203.951 24.9867 203.845 25.28 203.631 25.52C203.418 25.76 203.165 25.88 202.871 25.88C202.551 25.88 202.071 25.6533 201.431 25.2C200.685 24.72 199.978 24.3467 199.311 24.08C198.645 23.8133 197.818 23.68 196.831 23.68C195.578 23.68 194.565 23.96 193.791 24.52C193.045 25.08 192.671 25.8267 192.671 26.76C192.671 27.3467 192.805 27.8267 193.071 28.2C193.365 28.5467 193.831 28.8667 194.471 29.16C195.138 29.4267 196.085 29.6933 197.311 29.96C199.125 30.36 200.525 30.8 201.511 31.28C202.525 31.76 203.245 32.3467 203.671 33.04C204.098 33.7333 204.311 34.6133 204.311 35.68C204.311 37.36 203.605 38.72 202.191 39.76C200.778 40.7733 198.911 41.28 196.591 41.28ZM224.81 38.44C225.237 38.84 225.45 39.2667 225.45 39.72C225.45 40.12 225.303 40.4667 225.01 40.76C224.743 41.0533 224.41 41.2 224.01 41.2C223.663 41.2 223.303 41.04 222.93 40.72L212.49 31.72V39.6C212.49 40.1067 212.33 40.5067 212.01 40.8C211.717 41.0667 211.343 41.2 210.89 41.2C210.41 41.2 210.01 41.0667 209.69 40.8C209.397 40.5067 209.25 40.1067 209.25 39.6V14.2C209.25 13.6933 209.397 13.3067 209.69 13.04C210.01 12.7467 210.41 12.6 210.89 12.6C211.343 12.6 211.717 12.7467 212.01 13.04C212.33 13.3067 212.49 13.6933 212.49 14.2V30.44L222.05 21.68C222.37 21.36 222.73 21.2 223.13 21.2C223.53 21.2 223.877 21.3467 224.17 21.64C224.463 21.9333 224.61 22.28 224.61 22.68C224.61 23.1333 224.423 23.5333 224.05 23.88L216.17 30.92L224.81 38.44ZM231.28 41.2C230.64 41.2 230.106 41 229.68 40.6C229.253 40.1733 229.04 39.6267 229.04 38.96C229.04 38.2933 229.253 37.7467 229.68 37.32C230.106 36.8933 230.64 36.68 231.28 36.68C231.893 36.68 232.4 36.8933 232.8 37.32C233.226 37.7467 233.44 38.2933 233.44 38.96C233.44 39.6267 233.226 40.1733 232.8 40.6C232.4 41 231.893 41.2 231.28 41.2ZM240.46 41.2C239.98 41.2 239.58 41.0667 239.26 40.8C238.967 40.5067 238.82 40.1067 238.82 39.6V22.72C238.82 22.2133 238.967 21.8267 239.26 21.56C239.58 21.2667 239.98 21.12 240.46 21.12C240.94 21.12 241.327 21.2667 241.62 21.56C241.914 21.8267 242.06 22.2133 242.06 22.72V39.6C242.06 40.1333 241.914 40.5333 241.62 40.8C241.327 41.0667 240.94 41.2 240.46 41.2ZM240.46 16.92C239.82 16.92 239.3 16.7333 238.9 16.36C238.5 15.9867 238.3 15.4933 238.3 14.88C238.3 14.2933 238.5 13.8133 238.9 13.44C239.3 13.0667 239.82 12.88 240.46 12.88C241.1 12.88 241.62 13.0667 242.02 13.44C242.42 13.8133 242.62 14.2933 242.62 14.88C242.62 15.4933 242.42 15.9867 242.02 16.36C241.62 16.7333 241.1 16.92 240.46 16.92ZM256.197 41.28C254.357 41.28 252.731 40.8667 251.317 40.04C249.931 39.2133 248.851 38.04 248.077 36.52C247.331 34.9733 246.957 33.1867 246.957 31.16C246.957 29.1333 247.331 27.36 248.077 25.84C248.851 24.2933 249.931 23.1067 251.317 22.28C252.731 21.4533 254.357 21.04 256.197 21.04C258.037 21.04 259.664 21.4533 261.077 22.28C262.491 23.1067 263.571 24.2933 264.317 25.84C265.091 27.36 265.477 29.1333 265.477 31.16C265.477 33.1867 265.091 34.9733 264.317 36.52C263.571 38.04 262.491 39.2133 261.077 40.04C259.664 40.8667 258.037 41.28 256.197 41.28ZM256.197 38.6C258.117 38.6 259.584 37.9733 260.597 36.72C261.637 35.44 262.157 33.5867 262.157 31.16C262.157 28.7867 261.637 26.96 260.597 25.68C259.557 24.3733 258.091 23.72 256.197 23.72C254.304 23.72 252.837 24.3733 251.797 25.68C250.757 26.96 250.237 28.7867 250.237 31.16C250.237 33.56 250.744 35.4 251.757 36.68C252.797 37.96 254.277 38.6 256.197 38.6Z" fill="black"/>
<circle cx="23" cy="28" r="12.2851" fill="url(#paint0_linear)"/>
<path fill-rule="evenodd" clip-rule="evenodd" d="M31.6645 18.3012C34.3402 20.6945 36.0243 24.1737 36.0243 28.0461C36.0243 35.2646 30.1725 41.1164 22.954 41.1164C15.7355 41.1164 9.88373 35.2646 9.88373 28.0461C9.88373 20.8276 15.7355 14.9758 22.954 14.9758C24.2758 14.9758 25.5517 15.172 26.7542 15.5369L29.1092 11.458C27.1922 10.7465 25.1185 10.3577 22.9539 10.3577C13.1847 10.3577 5.26514 18.2772 5.26514 28.0464C5.26514 37.8157 13.1847 45.7352 22.9539 45.7352C32.7231 45.7352 40.6426 37.8157 40.6426 28.0464C40.6426 22.4608 38.0537 17.4798 34.0103 14.2381L31.6645 18.3012Z" fill="url(#paint1_linear)"/>
<path fill-rule="evenodd" clip-rule="evenodd" d="M23 51C30.4023 51 36.9879 47.5031 41.1948 42.0712L37.1838 39.7554C33.804 43.8581 28.6843 46.4738 22.9538 46.4738C19.0755 46.4738 15.4771 45.2758 12.5084 43.2296L9.27794 46.46C13.1085 49.3121 17.8572 51 23 51ZM5.20121 42.5683C1.95063 38.6016 0 33.5286 0 28C0 15.2975 10.2975 5 23 5C35.7025 5 46 15.2975 46 28C46 31.2817 45.3127 34.4028 44.0742 37.2274L40.0607 34.9102C40.9127 32.7887 41.3815 30.4722 41.3815 28.0461C41.3815 17.8688 33.1311 9.61841 22.9538 9.61841C12.7764 9.61841 4.52606 17.8688 4.52606 28.0461C4.52606 32.3115 5.97524 36.2384 8.4081 39.3614L5.20121 42.5683Z" fill="url(#paint2_linear)"/>
<defs>
<linearGradient id="paint0_linear" x1="23" y1="15.7148" x2="23" y2="40.2851" gradientUnits="userSpaceOnUse">
<stop stop-color="#9FBAEF"/>
<stop offset="1" stop-color="#BDF8D7"/>
</linearGradient>
<linearGradient id="paint1_linear" x1="22.9539" y1="10.3577" x2="22.9539" y2="45.7352" gradientUnits="userSpaceOnUse">
<stop stop-color="#85A9EF"/>
<stop offset="1" stop-color="#B0F7D0"/>
</linearGradient>
<linearGradient id="paint2_linear" x1="23" y1="5" x2="23" y2="51" gradientUnits="userSpaceOnUse">
<stop stop-color="#6891E2"/>
<stop offset="1" stop-color="#9DF3C4"/>
</linearGradient>
</defs>
</svg>
