<svg width="1616" height="498" viewBox="0 0 1616 498" fill="none" xmlns="http://www.w3.org/2000/svg">
<path d="M742.8 305.6C743.333 306.667 743.6 307.8 743.6 309C743.6 311 742.8 312.667 741.2 314C739.733 315.333 737.933 316 735.8 316C732.467 316 730.133 314.4 728.8 311.2L714.6 278.8H639.2L624.8 311.2C623.467 314.4 621.133 316 617.8 316C615.667 316 613.8 315.333 612.2 314C610.6 312.533 609.8 310.8 609.8 308.8C609.8 307.733 610.067 306.667 610.6 305.6L667.8 178.4C668.6 176.533 669.8 175.133 671.4 174.2C673 173.267 674.733 172.8 676.6 172.8C678.6 172.8 680.4 173.333 682 174.4C683.6 175.333 684.8 176.667 685.6 178.4L742.8 305.6ZM645.2 265.2H708.6L676.8 193.4L645.2 265.2ZM838.313 215.6C840.846 215.6 842.779 216.333 844.113 217.8C845.579 219.267 846.313 221.2 846.313 223.6V308.2C846.313 310.467 845.579 312.333 844.113 313.8C842.779 315.267 840.846 316 838.313 316C835.913 316 833.979 315.333 832.513 314C831.179 312.533 830.513 310.667 830.513 308.4V298.4C827.446 304.267 823.113 308.733 817.513 311.8C812.046 314.867 805.846 316.4 798.913 316.4C787.313 316.4 778.579 313.2 772.713 306.8C766.846 300.267 763.913 290.667 763.913 278V223.6C763.913 221.2 764.646 219.267 766.113 217.8C767.579 216.333 769.579 215.6 772.113 215.6C774.646 215.6 776.579 216.333 777.913 217.8C779.379 219.267 780.113 221.2 780.113 223.6V277.6C780.113 286.267 781.846 292.667 785.313 296.8C788.779 300.8 794.246 302.8 801.713 302.8C810.246 302.8 817.113 300.067 822.313 294.6C827.513 289 830.113 281.667 830.113 272.6V223.6C830.113 221.2 830.846 219.267 832.313 217.8C833.779 216.333 835.779 215.6 838.313 215.6ZM921.422 303.2C926.089 303.6 928.422 305.733 928.422 309.6C928.422 311.867 927.555 313.6 925.822 314.8C924.222 315.867 921.755 316.267 918.422 316L913.022 315.6C902.355 314.8 894.489 311.6 889.422 306C884.355 300.4 881.822 291.933 881.822 280.6V230.4H868.422C866.155 230.4 864.355 229.867 863.022 228.8C861.822 227.6 861.222 226.067 861.222 224.2C861.222 222.2 861.822 220.6 863.022 219.4C864.355 218.2 866.155 217.6 868.422 217.6H881.822V195C881.822 192.467 882.555 190.533 884.022 189.2C885.489 187.733 887.489 187 890.022 187C892.422 187 894.355 187.733 895.822 189.2C897.289 190.533 898.022 192.467 898.022 195V217.6H920.222C922.355 217.6 924.022 218.2 925.222 219.4C926.555 220.6 927.222 222.2 927.222 224.2C927.222 226.067 926.555 227.6 925.222 228.8C924.022 229.867 922.355 230.4 920.222 230.4H898.022V281.4C898.022 288.733 899.489 294.067 902.422 297.4C905.489 300.6 910.022 302.4 916.022 302.8L921.422 303.2ZM984.791 316.4C975.591 316.4 967.457 314.333 960.391 310.2C953.457 306.067 948.057 300.2 944.191 292.6C940.457 284.867 938.591 275.933 938.591 265.8C938.591 255.667 940.457 246.8 944.191 239.2C948.057 231.467 953.457 225.533 960.391 221.4C967.457 217.267 975.591 215.2 984.791 215.2C993.991 215.2 1002.12 217.267 1009.19 221.4C1016.26 225.533 1021.66 231.467 1025.39 239.2C1029.26 246.8 1031.19 255.667 1031.19 265.8C1031.19 275.933 1029.26 284.867 1025.39 292.6C1021.66 300.2 1016.26 306.067 1009.19 310.2C1002.12 314.333 993.991 316.4 984.791 316.4ZM984.791 303C994.391 303 1001.72 299.867 1006.79 293.6C1011.99 287.2 1014.59 277.933 1014.59 265.8C1014.59 253.933 1011.99 244.8 1006.79 238.4C1001.59 231.867 994.257 228.6 984.791 228.6C975.324 228.6 967.991 231.867 962.791 238.4C957.591 244.8 954.991 253.933 954.991 265.8C954.991 277.8 957.524 287 962.591 293.4C967.791 299.8 975.191 303 984.791 303ZM1100.13 303.2C1104.8 303.6 1107.13 305.733 1107.13 309.6C1107.13 311.867 1106.27 313.6 1104.53 314.8C1102.93 315.867 1100.47 316.267 1097.13 316L1091.73 315.6C1081.07 314.8 1073.2 311.6 1068.13 306C1063.07 300.4 1060.53 291.933 1060.53 280.6V230.4H1047.13C1044.87 230.4 1043.07 229.867 1041.73 228.8C1040.53 227.6 1039.93 226.067 1039.93 224.2C1039.93 222.2 1040.53 220.6 1041.73 219.4C1043.07 218.2 1044.87 217.6 1047.13 217.6H1060.53V195C1060.53 192.467 1061.27 190.533 1062.73 189.2C1064.2 187.733 1066.2 187 1068.73 187C1071.13 187 1073.07 187.733 1074.53 189.2C1076 190.533 1076.73 192.467 1076.73 195V217.6H1098.93C1101.07 217.6 1102.73 218.2 1103.93 219.4C1105.27 220.6 1105.93 222.2 1105.93 224.2C1105.93 226.067 1105.27 227.6 1103.93 228.8C1102.73 229.867 1101.07 230.4 1098.93 230.4H1076.73V281.4C1076.73 288.733 1078.2 294.067 1081.13 297.4C1084.2 300.6 1088.73 302.4 1094.73 302.8L1100.13 303.2ZM1162.9 215.2C1187.3 215.2 1199.5 228 1199.5 253.6V308C1199.5 310.4 1198.77 312.333 1197.3 313.8C1195.97 315.267 1194.1 316 1191.7 316C1189.3 316 1187.37 315.267 1185.9 313.8C1184.43 312.333 1183.7 310.4 1183.7 308V298.4C1181.17 304.133 1177.3 308.6 1172.1 311.8C1166.9 314.867 1160.9 316.4 1154.1 316.4C1147.83 316.4 1142.03 315.133 1136.7 312.6C1131.5 310.067 1127.37 306.533 1124.3 302C1121.23 297.467 1119.7 292.467 1119.7 287C1119.7 279.667 1121.57 274 1125.3 270C1129.03 265.867 1135.17 262.933 1143.7 261.2C1152.23 259.333 1164.1 258.4 1179.3 258.4H1183.7V251.8C1183.7 243.8 1182.03 237.933 1178.7 234.2C1175.5 230.467 1170.23 228.6 1162.9 228.6C1153.83 228.6 1144.63 231.067 1135.3 236C1131.7 238.267 1129.17 239.4 1127.7 239.4C1126.1 239.4 1124.77 238.8 1123.7 237.6C1122.63 236.4 1122.1 234.867 1122.1 233C1122.1 231.133 1122.63 229.533 1123.7 228.2C1124.9 226.733 1126.77 225.267 1129.3 223.8C1133.97 221.133 1139.23 219.067 1145.1 217.6C1151.1 216 1157.03 215.2 1162.9 215.2ZM1156.3 303.6C1164.3 303.6 1170.83 300.933 1175.9 295.6C1181.1 290.133 1183.7 283.133 1183.7 274.6V268.8H1180.1C1168.37 268.8 1159.43 269.333 1153.3 270.4C1147.17 271.333 1142.77 273 1140.1 275.4C1137.57 277.667 1136.3 281.067 1136.3 285.6C1136.3 290.8 1138.17 295.133 1141.9 298.6C1145.77 301.933 1150.57 303.6 1156.3 303.6ZM1261.96 316.4C1255.82 316.4 1249.96 315.667 1244.36 314.2C1238.89 312.733 1234.02 310.667 1229.76 308C1227.36 306.4 1225.62 304.933 1224.56 303.6C1223.62 302.133 1223.16 300.4 1223.16 298.4C1223.16 296.667 1223.62 295.267 1224.56 294.2C1225.62 293 1226.96 292.4 1228.56 292.4C1230.16 292.4 1232.49 293.4 1235.56 295.4C1239.56 297.8 1243.49 299.733 1247.36 301.2C1251.36 302.533 1256.29 303.2 1262.16 303.2C1269.36 303.2 1274.96 301.933 1278.96 299.4C1282.96 296.867 1284.96 293.2 1284.96 288.4C1284.96 285.467 1284.22 283.133 1282.76 281.4C1281.29 279.533 1278.76 277.933 1275.16 276.6C1271.56 275.133 1266.29 273.667 1259.36 272.2C1247.62 269.667 1239.22 266.267 1234.16 262C1229.09 257.733 1226.56 251.933 1226.56 244.6C1226.56 238.867 1228.16 233.8 1231.36 229.4C1234.56 225 1238.96 221.533 1244.56 219C1250.29 216.467 1256.76 215.2 1263.96 215.2C1269.16 215.2 1274.16 215.933 1278.96 217.4C1283.89 218.733 1288.22 220.667 1291.96 223.2C1296.49 226.4 1298.76 229.733 1298.76 233.2C1298.76 234.933 1298.22 236.4 1297.16 237.6C1296.09 238.8 1294.82 239.4 1293.36 239.4C1291.76 239.4 1289.36 238.267 1286.16 236C1282.42 233.6 1278.89 231.733 1275.56 230.4C1272.22 229.067 1268.09 228.4 1263.16 228.4C1256.89 228.4 1251.82 229.8 1247.96 232.6C1244.22 235.4 1242.36 239.133 1242.36 243.8C1242.36 246.733 1243.02 249.133 1244.36 251C1245.82 252.733 1248.16 254.333 1251.36 255.8C1254.69 257.133 1259.42 258.467 1265.56 259.8C1274.62 261.8 1281.62 264 1286.56 266.4C1291.62 268.8 1295.22 271.733 1297.36 275.2C1299.49 278.667 1300.56 283.067 1300.56 288.4C1300.56 296.8 1297.02 303.6 1289.96 308.8C1282.89 313.867 1273.56 316.4 1261.96 316.4ZM1403.05 302.2C1405.18 304.2 1406.25 306.333 1406.25 308.6C1406.25 310.6 1405.52 312.333 1404.05 313.8C1402.72 315.267 1401.05 316 1399.05 316C1397.32 316 1395.52 315.2 1393.65 313.6L1341.45 268.6V308C1341.45 310.533 1340.65 312.533 1339.05 314C1337.58 315.333 1335.72 316 1333.45 316C1331.05 316 1329.05 315.333 1327.45 314C1325.98 312.533 1325.25 310.533 1325.25 308V181C1325.25 178.467 1325.98 176.533 1327.45 175.2C1329.05 173.733 1331.05 173 1333.45 173C1335.72 173 1337.58 173.733 1339.05 175.2C1340.65 176.533 1341.45 178.467 1341.45 181V262.2L1389.25 218.4C1390.85 216.8 1392.65 216 1394.65 216C1396.65 216 1398.38 216.733 1399.85 218.2C1401.32 219.667 1402.05 221.4 1402.05 223.4C1402.05 225.667 1401.12 227.667 1399.25 229.4L1359.85 264.6L1403.05 302.2ZM1435.4 316C1432.2 316 1429.53 315 1427.4 313C1425.27 310.867 1424.2 308.133 1424.2 304.8C1424.2 301.467 1425.27 298.733 1427.4 296.6C1429.53 294.467 1432.2 293.4 1435.4 293.4C1438.47 293.4 1441 294.467 1443 296.6C1445.13 298.733 1446.2 301.467 1446.2 304.8C1446.2 308.133 1445.13 310.867 1443 313C1441 315 1438.47 316 1435.4 316ZM1481.3 316C1478.9 316 1476.9 315.333 1475.3 314C1473.83 312.533 1473.1 310.533 1473.1 308V223.6C1473.1 221.067 1473.83 219.133 1475.3 217.8C1476.9 216.333 1478.9 215.6 1481.3 215.6C1483.7 215.6 1485.63 216.333 1487.1 217.8C1488.57 219.133 1489.3 221.067 1489.3 223.6V308C1489.3 310.667 1488.57 312.667 1487.1 314C1485.63 315.333 1483.7 316 1481.3 316ZM1481.3 194.6C1478.1 194.6 1475.5 193.667 1473.5 191.8C1471.5 189.933 1470.5 187.467 1470.5 184.4C1470.5 181.467 1471.5 179.067 1473.5 177.2C1475.5 175.333 1478.1 174.4 1481.3 174.4C1484.5 174.4 1487.1 175.333 1489.1 177.2C1491.1 179.067 1492.1 181.467 1492.1 184.4C1492.1 187.467 1491.1 189.933 1489.1 191.8C1487.1 193.667 1484.5 194.6 1481.3 194.6ZM1559.99 316.4C1550.79 316.4 1542.65 314.333 1535.59 310.2C1528.65 306.067 1523.25 300.2 1519.39 292.6C1515.65 284.867 1513.79 275.933 1513.79 265.8C1513.79 255.667 1515.65 246.8 1519.39 239.2C1523.25 231.467 1528.65 225.533 1535.59 221.4C1542.65 217.267 1550.79 215.2 1559.99 215.2C1569.19 215.2 1577.32 217.267 1584.39 221.4C1591.45 225.533 1596.85 231.467 1600.59 239.2C1604.45 246.8 1606.39 255.667 1606.39 265.8C1606.39 275.933 1604.45 284.867 1600.59 292.6C1596.85 300.2 1591.45 306.067 1584.39 310.2C1577.32 314.333 1569.19 316.4 1559.99 316.4ZM1559.99 303C1569.59 303 1576.92 299.867 1581.99 293.6C1587.19 287.2 1589.79 277.933 1589.79 265.8C1589.79 253.933 1587.19 244.8 1581.99 238.4C1576.79 231.867 1569.45 228.6 1559.99 228.6C1550.52 228.6 1543.19 231.867 1537.99 238.4C1532.79 244.8 1530.19 253.933 1530.19 265.8C1530.19 277.8 1532.72 287 1537.79 293.4C1542.99 299.8 1550.39 303 1559.99 303Z" fill="black"/>
<circle cx="249" cy="249" r="133" fill="url(#paint0_linear)"/>
<path fill-rule="evenodd" clip-rule="evenodd" d="M342.8 144.001C371.768 169.911 390 207.577 390 249.5C390 327.648 326.648 391 248.5 391C170.352 391 107 327.648 107 249.5C107 171.352 170.352 108 248.5 108C262.809 108 276.623 110.124 289.642 114.074L315.138 69.913C294.385 62.2093 271.934 58 248.5 58C142.737 58 57 143.737 57 249.5C57 355.263 142.737 441 248.5 441C354.263 441 440 355.263 440 249.5C440 189.03 411.972 135.106 368.198 100.01L342.8 144.001Z" fill="url(#paint1_linear)"/>
<path fill-rule="evenodd" clip-rule="evenodd" d="M249 498C329.137 498 400.433 460.143 445.978 401.337L402.554 376.267C365.964 420.682 310.539 449 248.5 449C206.513 449 167.556 436.03 135.417 413.877L100.444 448.849C141.914 479.726 193.323 498 249 498ZM56.3089 406.718C21.1178 363.774 0 308.853 0 249C0 111.481 111.481 0 249 0C386.519 0 498 111.481 498 249C498 284.528 490.559 318.319 477.151 348.898L433.7 323.812C442.924 300.845 448 275.765 448 249.5C448 139.319 358.681 50 248.5 50C138.319 50 49 139.319 49 249.5C49 295.677 64.6888 338.19 91.027 372L56.3089 406.718Z" fill="url(#paint2_linear)"/>
<defs>
<linearGradient id="paint0_linear" x1="249" y1="116" x2="249" y2="382" gradientUnits="userSpaceOnUse">
<stop stop-color="#9FBAEF"/>
<stop offset="1" stop-color="#BDF8D7"/>
</linearGradient>
<linearGradient id="paint1_linear" x1="248.5" y1="58" x2="248.5" y2="441" gradientUnits="userSpaceOnUse">
<stop stop-color="#85A9EF"/>
<stop offset="1" stop-color="#B0F7D0"/>
</linearGradient>
<linearGradient id="paint2_linear" x1="249" y1="0" x2="249" y2="498" gradientUnits="userSpaceOnUse">
<stop stop-color="#6891E2"/>
<stop offset="1" stop-color="#9DF3C4"/>
</linearGradient>
</defs>
</svg>
