<svg width="498" height="498" viewBox="0 0 498 498" fill="none" xmlns="http://www.w3.org/2000/svg">
<circle cx="249" cy="249" r="133" fill="url(#paint0_linear)"/>
<path fill-rule="evenodd" clip-rule="evenodd" d="M342.8 144.001C371.768 169.911 390 207.577 390 249.5C390 327.648 326.648 391 248.5 391C170.352 391 107 327.648 107 249.5C107 171.352 170.352 108 248.5 108C262.809 108 276.623 110.124 289.642 114.074L315.138 69.913C294.385 62.2093 271.934 58 248.5 58C142.737 58 57 143.737 57 249.5C57 355.263 142.737 441 248.5 441C354.263 441 440 355.263 440 249.5C440 189.03 411.972 135.106 368.198 100.01L342.8 144.001Z" fill="url(#paint1_linear)"/>
<path fill-rule="evenodd" clip-rule="evenodd" d="M249 498C329.137 498 400.433 460.143 445.978 401.337L402.554 376.267C365.964 420.682 310.539 449 248.5 449C206.513 449 167.556 436.03 135.417 413.877L100.444 448.849C141.914 479.726 193.323 498 249 498ZM56.3089 406.718C21.1178 363.774 0 308.853 0 249C0 111.481 111.481 0 249 0C386.519 0 498 111.481 498 249C498 284.528 490.559 318.319 477.151 348.898L433.7 323.812C442.924 300.845 448 275.765 448 249.5C448 139.319 358.681 50 248.5 50C138.319 50 49 139.319 49 249.5C49 295.677 64.6888 338.19 91.027 372L56.3089 406.718Z" fill="url(#paint2_linear)"/>
<defs>
<linearGradient id="paint0_linear" x1="249" y1="116" x2="249" y2="382" gradientUnits="userSpaceOnUse">
<stop stop-color="#9FBAEF"/>
<stop offset="1" stop-color="#BDF8D7"/>
</linearGradient>
<linearGradient id="paint1_linear" x1="248.5" y1="58" x2="248.5" y2="441" gradientUnits="userSpaceOnUse">
<stop stop-color="#85A9EF"/>
<stop offset="1" stop-color="#B0F7D0"/>
</linearGradient>
<linearGradient id="paint2_linear" x1="249" y1="0" x2="249" y2="498" gradientUnits="userSpaceOnUse">
<stop stop-color="#6891E2"/>
<stop offset="1" stop-color="#9DF3C4"/>
</linearGradient>
</defs>
</svg>
