
<svg width="78" height="78" viewBox="0 0 78 78" fill="none" xmlns="http://www.w3.org/2000/svg">
<path d="M39 22.75C39.6465 22.75 40.2664 23.0068 40.7236 23.4639C41.1807 23.921 41.4375 24.541 41.4375 25.1875V36.5625H52.8125C53.459 36.5625 54.079 36.8193 54.5361 37.2764C54.9932 37.7335 55.25 38.3535 55.25 39C55.25 39.6465 54.9932 40.2664 54.5361 40.7236C54.079 41.1807 53.459 41.4375 52.8125 41.4375H41.4375V52.8125C41.4375 53.459 41.1807 54.079 40.7236 54.5361C40.2664 54.9932 39.6465 55.25 39 55.25C38.3535 55.25 37.7335 54.9932 37.2764 54.5361C36.8193 54.079 36.5625 53.459 36.5625 52.8125V41.4375H25.1875C24.541 41.4375 23.921 41.1807 23.4639 40.7236C23.0068 40.2664 22.75 39.6465 22.75 39C22.75 38.3535 23.0068 37.7335 23.4639 37.2764C23.921 36.8193 24.541 36.5625 25.1875 36.5625H36.5625V25.1875C36.5625 24.541 36.8193 23.921 37.2764 23.4639C37.7335 23.0068 38.3535 22.75 39 22.75Z" fill="#8F8E8E"/>
<path d="M9.75 20.3125C9.75 17.5112 10.8628 14.8245 12.8437 12.8437C14.8245 10.8628 17.5112 9.75 20.3125 9.75H57.6875C60.4888 9.75 63.1755 10.8628 65.1563 12.8437C67.1372 14.8245 68.25 17.5112 68.25 20.3125V57.6875C68.25 60.4888 67.1372 63.1755 65.1563 65.1563C63.1755 67.1372 60.4888 68.25 57.6875 68.25H20.3125C17.5112 68.25 14.8245 67.1372 12.8437 65.1563C10.8628 63.1755 9.75 60.4888 9.75 57.6875V20.3125ZM20.3125 14.625C18.8041 14.625 17.3574 15.2242 16.2908 16.2908C15.2242 17.3574 14.625 18.8041 14.625 20.3125V57.6875C14.625 60.827 17.173 63.375 20.3125 63.375H57.6875C59.1959 63.375 60.6426 62.7758 61.7092 61.7092C62.7758 60.6426 63.375 59.1959 63.375 57.6875V20.3125C63.375 18.8041 62.7758 17.3574 61.7092 16.2908C60.6426 15.2242 59.1959 14.625 57.6875 14.625H20.3125Z" fill="#8F8E8E"/>
</svg>
